<?xml version="1.0" encoding="UTF-8" standalone="no"?>
<!-- Created with Inkscape (http://www.inkscape.org/) -->

<svg
   width="87.594032mm"
   height="89.154564mm"
   viewBox="0 0 87.594032 89.154564"
   version="1.1"
   id="svg1"
   inkscape:version="1.3 (0e150ed6c4, 2023-07-21)"
   sodipodi:docname="favicon.svg"
   xmlns:inkscape="http://www.inkscape.org/namespaces/inkscape"
   xmlns:sodipodi="http://sodipodi.sourceforge.net/DTD/sodipodi-0.dtd"
   xmlns="http://www.w3.org/2000/svg"
   xmlns:svg="http://www.w3.org/2000/svg">
  <sodipodi:namedview
     id="namedview1"
     pagecolor="#ffffff"
     bordercolor="#000000"
     borderopacity="0.25"
     inkscape:showpageshadow="2"
     inkscape:pageopacity="0.0"
     inkscape:pagecheckerboard="0"
     inkscape:deskcolor="#d1d1d1"
     inkscape:document-units="mm"
     showguides="false"
     inkscape:zoom="0.54074774"
     inkscape:cx="532.59585"
     inkscape:cy="492.83609"
     inkscape:window-width="1600"
     inkscape:window-height="821"
     inkscape:window-x="-9"
     inkscape:window-y="-9"
     inkscape:window-maximized="1"
     inkscape:current-layer="layer1" />
  <defs
     id="defs1" />
  <g
     inkscape:label="Layer 1"
     inkscape:groupmode="layer"
     id="layer1"
     transform="translate(-79.962324,-130.88726)">
    <path
       d="m 163.16869,180.13833 c -0.0768,0.8545 0.4655,1.50399 1.72174,1.65094 l 0.0637,-0.70834 c -0.61637,-0.0781 -0.99486,-0.40681 -0.95038,-0.90153 0.0627,-0.6971 1.19374,-1.04878 1.2918,-2.1394 0.0768,-0.85451 -0.4655,-1.504 -1.7105,-1.64994 l -0.0637,0.70834 c 0.61638,0.0781 0.98261,0.41705 0.93914,0.90052 -0.0627,0.6971 -1.19475,1.06003 -1.2918,2.13941 z m -6.24315,11.20604 -0.48132,1.22998 5.35556,-1.75917 2.08143,4.43914 0.46898,-1.19844 -2.54716,-5.60332 4.11043,1.60853 0.41139,-1.05126 -7.35883,-2.87971 -0.41139,1.05126 1.90279,0.74461 0.84006,1.88042 z m -0.98983,3.72477 2.1242,1.4131 -2.19469,3.29909 0.79893,0.53148 2.19468,-3.29909 2.02081,1.34432 -2.46355,3.70325 0.81772,0.54398 3.08882,-4.64316 -6.57938,-4.37686 -3.17635,4.77475 0.81772,0.54398 z m -4.70345,6.17102 1.78942,1.81854 -2.82437,2.77913 0.67301,0.68396 2.82437,-2.77913 1.70231,1.73002 -3.17037,3.1196 0.68885,0.70005 3.97503,-3.91137 -5.54243,-5.63263 -4.08768,4.02221 0.68884,0.70006 z m -3.82739,11.98561 2.60644,-1.6445 -4.21667,-6.68318 -0.95474,0.60239 1.27705,2.02404 -1.6517,1.04212 c -1.73762,1.09634 -2.23365,2.63732 -1.31803,4.08852 0.91562,1.4512 2.52003,1.66694 4.25765,0.57061 z m -2.3869,-3.84658 1.62305,-1.02404 1.89148,2.99788 -1.62306,1.02405 c -1.22206,0.77104 -2.2051,0.63044 -2.80748,-0.3243 -0.60238,-0.95474 -0.30606,-1.90254 0.91601,-2.67359 z m -11.34573,1.26419 c -2.01107,0.56319 -2.66588,1.8251 -2.34014,2.98826 0.78237,2.79376 5.0658,0.33984 5.58637,2.19872 0.1857,0.66311 -0.21649,1.3619 -1.5101,1.72417 -0.67399,0.18874 -1.47886,0.20312 -2.2607,-0.0351 l -0.11519,0.97011 c 0.75227,0.25826 1.74325,0.23866 2.63465,-0.011 2.0002,-0.56015 2.63327,-1.81597 2.30449,-2.99 -0.79151,-2.82637 -5.0719,-0.36158 -5.59246,-2.22046 -0.1857,-0.66311 0.23649,-1.33234 1.55184,-1.70069 0.97836,-0.27398 2.04936,-0.17532 2.75771,0.1773 l 0.16477,-0.96055 c -0.76706,-0.3948 -2.01808,-0.46649 -3.18124,-0.14076 z m -8.09906,1.3211 c -1.22781,0.0811 -2.25837,0.57913 -2.9257,1.4378 l 0.77907,0.66127 c 0.56585,-0.68225 1.2892,-1.03551 2.15655,-1.09282 1.77977,-0.11759 3.18254,1.07946 3.2979,2.82543 0.11536,1.74598 -1.11772,3.11719 -2.89749,3.23478 -0.86735,0.0573 -1.63015,-0.18644 -2.28084,-0.78832 l -0.6853,0.75803 c 0.77451,0.7634 1.86089,1.11022 3.07744,1.02984 2.3993,-0.15853 4.06668,-1.97703 3.91262,-4.30875 -0.15406,-2.33172 -2.04621,-3.91504 -4.43425,-3.75726 z m -11.06828,-0.88901 1.43487,2.91388 c -1.15458,0.21678 -1.91698,0.98731 -2.10813,2.19144 -0.26902,1.69469 0.79458,2.91511 2.82375,3.23722 l 3.04375,0.48317 1.2389,-7.8045 -1.11493,-0.17698 -0.37697,2.37479 -1.92883,-0.30618 c -0.16724,-0.0266 -0.33625,-0.042 -0.49411,-0.0556 l -1.30302,-2.66434 z m 2.89542,3.86584 1.89538,0.30087 -0.55751,3.51203 -1.89538,-0.30088 c -1.42711,-0.22654 -2.07323,-0.98063 -1.89624,-2.09556 0.17699,-1.11493 1.02664,-1.643 2.45375,-1.41646 z m -7.8047,-5.8126 c -2.21579,-0.93384 -4.52583,-0.0453 -5.42898,2.09764 -0.90315,2.14297 0.0741,4.4169 2.28987,5.35074 2.23659,0.94261 4.55102,0.0437 5.44979,-2.08887 0.89876,-2.13257 -0.0741,-4.4169 -2.31068,-5.35951 z m -0.3902,0.92585 c 1.63324,0.68832 2.34015,2.38281 1.6606,3.99524 -0.67956,1.61242 -2.38608,2.28977 -4.01931,1.60144 -1.61243,-0.67955 -2.31935,-2.37404 -1.6398,-3.98647 0.67956,-1.61242 2.38608,-2.28977 3.99851,-1.61021 z m -4.9232,-3.51819 -4.401581,-3.14098 -0.570493,0.79945 3.482674,2.48525 -4.019679,5.63292 0.91891,0.65574 z m -5.331504,-4.0718 -3.756342,-3.88968 -0.706477,0.68226 2.972138,3.07764 -4.977819,4.80717 0.784206,0.81205 z m -4.451983,-5.00796 -0.663875,-0.91305 -6.391352,4.64712 0.663875,0.91305 z m -11.690671,-4.43377 5.29117,-2.59396 -3.204078,6.85122 0.40748,0.83118 7.095438,-3.47848 -0.496926,-1.01364 -5.29117,2.59396 3.204077,-6.85122 -0.40748,-0.83118 -7.095438,3.47849 z m 3.297392,-11.82076 c 0.471811,0.47591 0.745788,1.05208 0.885779,1.70325 0.382009,1.77691 -0.609605,3.34107 -2.30926,3.70647 -1.721728,0.37014 -3.246486,-0.65303 -3.630868,-2.44098 -0.187445,-0.8719 -0.06813,-1.65965 0.412311,-2.43265 L 80.63203,181.201 c -0.631752,0.87482 -0.817075,2.00006 -0.553702,3.22514 0.514881,2.39497 2.556317,3.78049 4.840918,3.28933 2.284601,-0.49115 3.576255,-2.59324 3.066119,-4.96613 -0.232527,-1.0816 -0.793783,-2.08098 -1.611041,-2.71356 l -3.013024,0.64775 0.227781,1.05953 z m -1.718556,-10.0416 c 0.06834,-0.85523 -0.480407,-1.4993 -1.738047,-1.63377 l -0.05665,0.70894 c 0.617118,0.072 0.998846,0.39692 0.959279,0.89205 -0.05575,0.69769 -1.183266,1.06058 -1.270493,2.15212 -0.06834,0.85523 0.480407,1.4993 1.726794,1.63288 l 0.05665,-0.70894 c -0.617117,-0.072 -0.986693,-0.40727 -0.948025,-0.89115 0.05575,-0.69769 1.184165,-1.07184 1.270492,-2.15213 z m 6.131608,-11.26747 0.469089,-1.2347 -5.337841,1.81225 -2.12539,-4.41826 -0.457062,1.20304 2.60266,5.57775 -4.126198,-1.56764 -0.400931,1.05529 7.387054,2.80652 0.400931,-1.05529 -1.910081,-0.72569 -0.858689,-1.87198 z m 0.952807,-3.73441 -2.138123,-1.39195 2.161824,-3.32071 -0.804162,-0.52352 -2.161823,3.32071 -2.034055,-1.32419 2.426662,-3.72752 -0.823082,-0.53584 -3.042567,4.6736 6.622504,4.31133 3.128793,-4.80605 -0.823082,-0.53584 z m 4.64195,-6.21742 -1.807378,-1.80068 2.796637,-2.80703 -0.679765,-0.67725 -2.796638,2.80703 -1.719407,-1.71304 3.139245,-3.15091 -0.69576,-0.69319 -3.936008,3.95064 5.598071,5.57734 4.04755,-4.0626 -0.695755,-0.69318 z m 3.708206,-12.02301 -2.589984,1.6703 4.282805,6.64098 0.94871,-0.61183 -1.29708,-2.01127 1.64128,-1.05846 c 1.72665,-1.11353 2.20735,-2.65936 1.27737,-4.1014 -0.92998,-1.44205 -2.53644,-1.64185 -4.263101,-0.52832 z m 2.424971,3.82269 -1.61281,1.04011 -1.921141,-2.97895 1.612811,-1.04011 c 1.21435,-0.78315 2.19873,-0.65231 2.81056,0.29641 0.61183,0.94871 0.32494,1.8994 -0.88942,2.68254 z m 11.33261,-1.37676 c 2.00538,-0.58312 2.64763,-1.85147 2.31036,-3.01134 -0.81007,-2.78586 -5.06892,-0.28953 -5.60792,-2.14315 -0.19227,-0.66124 0.20296,-1.36399 1.49291,-1.73908 0.67207,-0.19542 1.47677,-0.2178 2.26093,0.0127 l 0.10555,-0.97121 c -0.75479,-0.25078 -1.74553,-0.22134 -2.6344,0.0371 -1.99455,0.57997 -2.61511,1.84201 -2.27469,3.01272 0.81952,2.81838 5.07523,0.31121 5.61422,2.16484 0.19228,0.66123 -0.22325,1.33461 -1.53488,1.71601 -0.97559,0.28368 -2.04752,0.19565 -2.75934,-0.14992 l -0.15522,0.96214 c 0.77094,0.38716 2.02261,0.44644 3.18248,0.10917 z m 8.08555,-1.40143 c 1.22695,-0.0933 2.25252,-0.60152 2.91129,-1.46677 l -0.7856,-0.65351 c -0.55905,0.68784 -1.27886,1.04827 -2.1456,1.11418 -1.77851,0.13526 -3.19309,-1.04781 -3.32578,-2.79255 -0.13269,-1.74474 1.08671,-3.12812 2.86522,-3.26338 0.86674,-0.0659 1.63192,0.17025 2.28856,0.76563 l 0.67774,-0.76479 c -0.78205,-0.75567 -1.87182,-1.09169 -3.08751,-0.99924 -2.39761,0.18235 -4.04686,2.01732 -3.86965,4.34739 0.1772,2.33007 2.08498,3.89453 4.47133,3.71304 z m 11.07615,0.77897 -1.46376,-2.89948 c 1.15237,-0.22824 1.90708,-1.00631 2.08625,-2.21228 0.25216,-1.69728 -0.82351,-2.90706 -2.85579,-3.20899 l -3.0484,-0.4529 -1.16127,7.81643 1.11663,0.1659 0.35336,-2.37843 1.93177,0.287 c 0.1675,0.0249 0.33665,0.0386 0.49464,0.0507 l 1.32944,2.65126 z m -2.9337,-3.83687 -1.89827,-0.28202 0.52257,-3.51739 1.89828,0.28202 c 1.42929,0.21235 2.08287,0.95998 1.91697,2.07661 -0.16589,1.11663 -1.01026,1.65313 -2.43955,1.44078 z m 7.86146,5.73449 c 2.22498,0.91173 4.52605,2.6e-4 5.40782,-2.1516 0.88177,-2.15186 -0.11806,-4.41594 -2.34304,-5.32767 -2.24587,-0.92029 -4.55123,0.002 -5.42872,2.14303 -0.87748,2.14142 0.11807,4.41595 2.36394,5.33624 z m 0.38095,-0.92969 c -1.64,-0.67203 -2.36376,-2.35939 -1.70029,-3.9785 0.66346,-1.61912 2.36315,-2.31342 4.00316,-1.6414 1.61912,0.66347 2.34288,2.35083 1.67941,3.96995 -0.66347,1.61911 -2.36316,2.31342 -3.98228,1.64995 z m 4.95743,3.46864 4.4327,3.09692 0.56249,-0.8051 -3.50729,-2.45038 3.96329,-5.67275 -0.92541,-0.64654 z m 5.37148,4.01806 3.79501,3.85197 0.69963,-0.68929 -3.00274,-3.04779 4.92955,-4.85667 -0.79228,-0.80416 z m 4.50155,4.96292 0.67297,0.90636 6.34455,-4.7108 -0.67297,-0.90637 z m 11.73418,4.31609 -5.26493,2.64681 3.13531,-6.88296 -0.41578,-0.82706 -7.06025,3.54937 0.50705,1.00861 5.26493,-2.64682 -3.13531,6.88297 0.41579,0.82705 7.06024,-3.54936 z m -3.17897,11.85245 c -0.47657,-0.47115 -0.75631,-1.04455 -0.90283,-1.69428 -0.39982,-1.77299 0.57605,-3.34702 2.27196,-3.72945 1.71793,-0.3874 3.25287,0.62043 3.65517,2.40443 0.19619,0.86997 0.0848,1.65887 -0.38788,2.43666 l 0.83674,0.5288 c 0.62294,-0.88111 0.79696,-2.00816 0.52131,-3.23053 -0.53888,-2.38968 -2.59412,-3.75465 -4.87368,-3.2406 -2.27955,0.51406 -3.55005,2.62899 -3.01613,4.99665 0.24336,1.07921 0.81462,2.07291 1.63818,2.69726 l 3.00638,-0.67796 -0.2384,-1.05718 z"
       id="text5"
       style="font-weight:500;font-size:11.2889px;font-family:Montserrat;-inkscape-font-specification:'Montserrat Medium';letter-spacing:0px;fill:#cccccc;stroke-width:0.264583"
       aria-label="~ KEEP SCROLLING ~ KEEP SCROLLING                                  " />
    <circle
       style="fill:#f9f9f9;stroke-width:0.264583"
       id="path6"
       cx="123.75934"
       cy="175.46455"
       r="5.0167303" />
  </g>
</svg>
